<?xml version="1.0" encoding="utf-8"?>
<!-- Generator: Adobe Illustrator 24.2.3, SVG Export Plug-In . SVG Version: 6.00 Build 0)  -->
<svg version="1.1" id="Layer_1" xmlns="http://www.w3.org/2000/svg" xmlns:xlink="http://www.w3.org/1999/xlink" x="0px" y="0px"
	 viewBox="0 0 48 48" style="enable-background:new 0 0 48 48;" xml:space="preserve">
<style type="text/css">
	.st0{fill:#C9DC50;}
	.st1{fill:#9EBE19;}
	.st2{fill:#F4FA87;}
	.st3{fill:#7DA408;}
</style>
<g>
	<path class="st0" d="M46.4,17.6c0-0.1,0-0.2,0-0.4c0-0.1,0-0.2,0-0.2c0-0.6-0.1-1.2-0.1-1.8c0-0.1,0-0.1-0.1-0.2c0-0.1,0-0.1,0-0.2
		c-0.1-0.3-0.1-0.6-0.2-0.9c0-0.1,0-0.1,0-0.1s0-0.1-0.1-0.2c-0.1-0.6-0.3-1.2-0.5-1.8c0,0,0,0,0-0.1c-0.1-0.3-0.2-0.6-0.4-0.9
		c-0.1-0.2-0.2-0.4-0.2-0.6c-0.8-1.8-2-3.5-3.4-4.8c-0.2-0.2-0.5-0.5-0.8-0.7c-0.2-0.2-0.4-0.4-0.7-0.5c-0.2-0.2-0.5-0.4-0.8-0.5
		c-0.3-0.2-0.6-0.4-0.9-0.5c-1.9-1-4-1.6-6.2-1.6C28,1.4,24.8,3.4,22,6c-0.4,0.3-0.7,0.7-1,1c-0.4,0.4-0.7,0.7-1,1.1
		c-1.9,2.2-3.7,4.6-5.5,6.7c-1.9,2.2-3.9,4.4-6,6.5c-1.3,1.3-2.6,2.6-3.7,4l0,0l0,0c-0.2,0.4-0.5,0.7-0.7,1
		c-0.1,0.1-0.1,0.1-0.1,0.2c-0.1,0.1-0.1,0.2-0.2,0.2c-0.2,0.3-0.4,0.6-0.5,0.9c-0.2,0.3-0.3,0.5-0.4,0.8c-2,4.2-2.1,9.6,1.1,13.2
		s8,4.9,12.9,4.7c0.7,0,1.3-0.1,2-0.2c0.7-0.1,1.3-0.2,2-0.3s1.3-0.3,1.9-0.4c0.3-0.1,0.7-0.2,1-0.2c0.7-0.2,1.3-0.4,1.9-0.6
		c2.5-0.9,4.7-2,6.6-3.3c0.4-0.3,0.9-0.6,1.3-1c5.7-4.4,10.3-10.9,12.2-17.9c0.3-1.1,0.5-2.2,0.7-3.2l0,0c0.1-0.3,0.1-0.7,0.1-1
		c0-0.1,0-0.2,0-0.3C46.4,17.9,46.4,17.7,46.4,17.6z"/>
	<path class="st1" d="M46.3,19.3L46.3,19.3c1.1-8.7-4.9-17.5-14.1-17.6c-8.5-0.1-12.9,7.6-17.7,13.3c-1.9,2.2-3.9,4.4-6,6.5
		c-2,1.9-3.8,3.9-5.2,6.4c-2.4,4.3-2.8,10.1,0.7,14.1c6.8,7.8,20.7,4.7,28.1-0.4C39.4,36.4,45.1,27.9,46.3,19.3z M34.8,25.4
		c-1.7,2.8-3.8,5.3-6.4,7.2c-3.3,2.6-7.5,4.4-11.7,3.8c-1.7-0.2-3.3-0.7-4.7-1.5c-1.4-0.8-2.8-1.9-3.5-3.4c-1.8-3.6,0.6-7.4,3-10.1
		c1.4-1.6,2.9-3,4.4-4.5c0.7-0.7,1.3-1.3,1.9-2c0.6-0.8,1.2-1.6,1.8-2.4c1.5-2,3-4.3,4.9-6.1c1-1.4,2.3-2.6,4-3.2
		c3-1,6.4,0.1,8.6,2.3c2.7,2.8,2.8,6.9,1.9,10.5C38,19.4,36.6,22.5,34.8,25.4z"/>
	<path class="st2" d="M20.2,21.4c-0.1-1.1-0.7-2.3-1.9-2.6c-1.3-0.2-2.5,0.6-3.5,1.3c-0.4,0.3-0.7,0.6-1.1,0.9
		c-0.2,0.2-0.5,0.4-0.7,0.7c-1,0.9-1.8,2-2.4,3.1c-0.5,1-1,2.2-0.7,3.3c0.2,1.2,1.3,2,2.4,2c1.4,0,2.7-0.7,3.8-1.5
		c1.1-0.8,1.9-1.8,2.6-2.9C19.6,24.5,20.4,22.9,20.2,21.4z"/>
	<path class="st2" d="M23.1,13.8c-0.4-0.5-1-0.6-1.6-0.4c-0.5,0.2-0.9,0.5-1.2,1l0,0c-0.3,0.2-0.5,0.6-0.6,1c-0.2,0.7,0.1,1.7,1,1.8
		c0.5,0.1,1.1-0.2,1.4-0.5c0.4-0.4,0.8-0.8,1-1.3C23.2,14.8,23.4,14.2,23.1,13.8z"/>
	<path class="st3" d="M46.3,19.3L46.3,19.3c0.4-2.9-0.1-5.8-1.1-8.4c0,0.1,0,0.1,0,0.2c0.4,2.7,0.1,5.4-0.5,8s-1.6,5-2.9,7.2
		c-1.6,2.7-3.6,5.2-5.9,7.3c-2.3,2.1-4.9,3.8-7.6,5.1c-1.4,0.7-2.9,1.3-4.3,1.8c-1.4,0.5-2.8,0.9-4.3,1.2c-2.8,0.5-5.7,0.5-8.4-0.2
		c-2.6-0.7-5-2.3-6.4-4.8c-1.6-3-1.6-6.7-0.6-9.9c0.2-0.5,0.4-1,0.6-1.5c-0.5,0.8-1.1,1.6-1.6,2.4C0.9,32,0.6,37.8,4.1,41.7
		c6.8,7.8,20.7,4.7,28.1-0.4C39.4,36.4,45.1,27.9,46.3,19.3z"/>
</g>
</svg>
